<?xml version="1.0" encoding="utf-8"?>
<!-- Generator: Adobe Illustrator 26.0.0, SVG Export Plug-In . SVG Version: 6.00 Build 0)  -->
<svg version="1.1" id="레이어_1" xmlns="http://www.w3.org/2000/svg" xmlns:xlink="http://www.w3.org/1999/xlink" x="0px"
	 y="0px" viewBox="0 0 1000 600" style="enable-background:new 0 0 1000 600;" xml:space="preserve">
<style type="text/css">
	.st0{fill:#6C98FE;}
</style>
<path class="st0" d="M5,0C2.2,0,0,2.2,0,5v215.8L239.3,0H5z"/>
<path class="st0" d="M995,0h-27.2H853H595.9l-39.6,36.5c-33.7,31.1-35.8,83.6-4.7,117.3l58.4,63.3c1.2,1.3,2.4,2.5,3.7,3.7
	L490.4,334.6c-38.9,35.9-41.3,96.5-5.4,135.4l41,44.5c35.9,38.9,96.5,41.3,135.4,5.4L1000,207.5V5C1000,2.2,997.8,0,995,0z"/>
</svg>
