<?xml version="1.0" encoding="utf-8"?>
<!-- Generator: Adobe Illustrator 26.0.0, SVG Export Plug-In . SVG Version: 6.00 Build 0)  -->
<svg version="1.1" id="레이어_1" xmlns="http://www.w3.org/2000/svg" xmlns:xlink="http://www.w3.org/1999/xlink" x="0px"
	 y="0px" viewBox="0 0 80 30" style="enable-background:new 0 0 80 30;" xml:space="preserve">
<path d="M2.4,0.3h2.3v21.6c0,1.9,1,1.9,1.9,1.9h9.3v2.6H6.6c-2,0-4.1-0.5-4.1-4.5V0.3z"/>
<path d="M24.4,4.9c5.4,0,7.1,2.7,7.1,11.1c0,7.9-1.7,10.5-7.1,10.5s-7.1-2.9-7.1-10.5C17.2,7.3,19.1,4.9,24.4,4.9z M24.4,23.5
	c3.3,0,4.9-0.6,4.9-7.5c0-7.6-1.3-8.1-4.9-8.1c-3.4,0-4.9,0.5-4.9,8.1C19.5,23,21.2,23.5,24.4,23.5z"/>
<path d="M36.3,15.3c-1.3-0.9-1.8-2.9-1.8-4.6c0-4,2-5.9,5.3-5.9h9.5v1.7l-2.5,0.6c0.3,0.7,0.9,1.3,0.9,3.6c0,1.9-0.7,6.1-5,6.1H38
	c-0.5,0-1.2,0.1-1.2,0.9c0,0.8,0.6,1.1,1.2,1.1h6.5c2.5,0,3.9,1.7,3.9,4.3v2c0,1.9-0.6,4.8-4.6,4.8h-4.6c-2.9,0-4.9-1.6-4.9-4.8
	v-2.7l1.2-2c-0.9-0.6-1.1-1.7-1.1-2.5C34.5,16.9,35,15.6,36.3,15.3z M39.2,27.6h4.6c1.8,0,2.3-1,2.3-2.5v-1.8c0-1.5-0.3-2.2-2.1-2.2
	H38c-0.9,0-1.4-0.2-1.4-0.2v4.2C36.6,27.4,38.2,27.6,39.2,27.6z M39.5,14.5h3c2.4,0,3-2.3,3-3.8c-0.1-2.2-0.6-3.6-3-3.6h-2.7
	c-2.5,0-3,1.9-3,3.6C36.7,12.3,37.2,14.5,39.5,14.5z"/>
<path d="M59,1.3c0-0.6,0.2-0.9,0.7-0.9h1.5c0.5,0,0.7,0.4,0.7,0.9v2c0,0.6-0.3,0.9-0.7,0.9h-1.5c-0.4,0-0.7-0.3-0.7-0.9V1.3z
	 M59.3,6.5h2.3v19.9h-2.3V6.5z"/>
<path d="M65.3,5.2h1.6l0.7,2.5c1.9-1.4,3.5-2.8,6-2.8c3.2,0,5,3.3,5,6.8v14.8h-2.3V11.6c0-2.6-1.2-3.8-2.7-3.8c-2.4,0-3.6,0.8-6,2.3
	v16.3h-2.3V5.2z"/>
</svg>
