<?xml version="1.0" encoding="utf-8"?>
<!-- Generator: Adobe Illustrator 26.0.0, SVG Export Plug-In . SVG Version: 6.00 Build 0)  -->
<svg version="1.1" id="레이어_1" xmlns="http://www.w3.org/2000/svg" xmlns:xlink="http://www.w3.org/1999/xlink" x="0px"
	 y="0px" viewBox="0 0 80 30" style="enable-background:new 0 0 80 30;" xml:space="preserve">
<g>
	<path d="M12.3,4.3H2.9v8.2h8.3c1.2,0,2,0.5,2.4,1.4s0.7,2.8,0.7,5.5v3.3c0,2.7-0.2,4.5-0.6,5.5c-0.4,1-1.2,1.4-2.4,1.4H3.6
		c-1.2,0-2-0.5-2.4-1.5c-0.4-1-0.7-2.8-0.7-5.5v-0.8l2-1v4.7h9.8v-8.8H4c-1.2,0-2-0.5-2.4-1.5S1,12.5,1,9.8V7.3
		c0-2.7,0.2-4.5,0.6-5.5C2,0.8,2.8,0.3,4,0.3h7c1.2,0,2,0.5,2.4,1.4c0.4,0.9,0.7,2.6,0.7,5v0.6l-1.9,1.2L12.3,4.3L12.3,4.3z"/>
</g>
<path d="M18.5,10.7v15.2h-1V10.7h-2.6V8h6.3v2.6H18.5z"/>
<path d="M22.7,25.8V8h4.5c0.4,0,0.7,0.3,0.9,0.8c0.2,0.5,0.3,1.4,0.3,2.6v4c0,1.2-0.1,2.1-0.3,2.6s-0.5,0.8-0.9,0.8h-0.7l2.5,7h-1.4
	l-2.2-7h-1.5v7H22.7z M26.8,10.6h-3v5.7h3c0.2,0,0.4-0.1,0.5-0.4s0.1-0.7,0.1-1.4v-2.1c0-0.7,0-1.1-0.1-1.4S27,10.6,26.8,10.6z"/>
<path d="M30.2,25.8L33.4,8h1l3.3,17.8h-1.1l-0.7-4.2h-3.9l-0.7,4.2H30.2z M32.4,19.1h3l-1.5-8.5L32.4,19.1z"/>
<path d="M41.3,10.7v15.2h-1V10.7h-2.6V8H44v2.6H41.3z"/>
<path d="M45.5,25.8V8h5.6v2.6h-4.6v4.6h2.8v2.6h-2.8v5.3h4.6v2.6H45.5z"/>
<path d="M58.5,10.7h-4.4v12.5h4.4v-4.8h-2.3v-2.4h3.3v5.7c0,1.6-0.1,2.7-0.3,3.3c-0.2,0.6-0.6,0.9-1.1,0.9h-3.8
	c-0.5,0-0.9-0.3-1.1-0.9s-0.3-1.7-0.3-3.3v-9.4c0-1.6,0.1-2.7,0.3-3.3S53.9,8,54.4,8h3.8c0.5,0,0.9,0.3,1.1,0.9
	c0.2,0.6,0.3,1.6,0.3,3.1v0.5l-1.1,0.6V10.7z"/>
<path d="M63,25.8h-1V8.1h1V25.8z"/>
<path d="M70.5,10.7h-3.9v4.6h3.6c0.5,0,0.9,0.3,1.1,0.9c0.2,0.6,0.3,1.7,0.3,3.3v2.1c0,1.6-0.1,2.8-0.3,3.3
	c-0.2,0.6-0.5,0.9-1.1,0.9h-3.4c-0.5,0-0.9-0.3-1.1-0.9s-0.3-1.7-0.3-3.3v-0.5l1-0.6v2.6h4.2v-5h-3.6c-0.5,0-0.9-0.3-1.1-0.9
	c-0.2-0.6-0.3-1.7-0.3-3.3v-1.7c0-1.6,0.1-2.7,0.3-3.3C66.1,8.3,66.4,8,66.9,8h3.1c0.5,0,0.9,0.3,1.1,0.9s0.3,1.6,0.3,3v0.4l-1,0.7
	V10.7z"/>
<path d="M76.6,10.7v15.2h-1V10.7h-2.6V8h6.3v2.6H76.6z"/>
</svg>
