<?xml version="1.0" encoding="utf-8"?>
<!-- Generator: Adobe Illustrator 26.0.0, SVG Export Plug-In . SVG Version: 6.00 Build 0)  -->
<svg version="1.1" id="레이어_1" xmlns="http://www.w3.org/2000/svg" xmlns:xlink="http://www.w3.org/1999/xlink" x="0px"
	 y="0px" viewBox="0 0 90 30" style="enable-background:new 0 0 90 30;" xml:space="preserve">
<style type="text/css">
	.st0{enable-background:new    ;}
</style>
<path d="M20,10.4l1.7-0.5l0.4-3.2h1.3V10H26v1.8h-2.6v5.5c0,1.9,0.4,2.3,1,2.5c0,0,1.4,0.5,1.5,0.5v1.4h-1.7c-1.4,0-2.4-1.1-2.4-4.1
	v-5.7H20V10.4z"/>
<path d="M27.5,10h1.3l0.4,1.5c1-0.8,1.9-1.6,3.3-1.6c0.5,0,1,0,1.3,0.2v2c-0.2-0.1-0.8-0.1-1.4-0.1c-1.3,0-2.1,0.4-3.3,1.3v8.4h-1.7
	V10z"/>
<path d="M34.8,17.5c0-1.7,0.9-3,2.5-3c0,0,3.7,0,3.7,0c0,0,0-1.2,0-1.3c0-1.3-0.5-1.7-1.4-1.7c-1.2,0-3,0.1-4.4,0.2v-1.4
	c1.3-0.5,2.8-0.7,4.6-0.7c1.6,0,2.9,0.9,2.9,3.5v8.4h-1.3L41,20.3c-0.1,0.1-2.1,1.5-3.7,1.5c-1.5,0-2.5-1.2-2.5-3V17.5z M37.5,19.9
	c1.3,0,3.5-1.1,3.5-1.1V16l-3.5,0.3c-0.7,0.1-1,0.7-1,1.4v0.9C36.5,19.6,36.9,19.9,37.5,19.9z"/>
<path d="M43.8,10.4l1.7-0.5l0.4-3.2h1.3V10h2.6v1.8h-2.6v5.5c0,1.9,0.4,2.3,1,2.5c0,0,1.4,0.5,1.5,0.5v1.4h-1.7
	c-1.4,0-2.4-1.1-2.4-4.1v-5.7h-1.7V10.4z"/>
<path d="M55.3,9.9c2.4,0,3.8,0.3,3.8,4.1c0,1.8-0.8,2.8-2.5,2.8h-3.8c0,2.6,0.5,3.1,1.9,3.1c1.6,0,2.9,0,4.2-0.2v1.5
	c-1.4,0.5-3.1,0.6-4.6,0.6c-2.4,0-3.2-1.5-3.2-6C51.1,10.6,52.3,9.9,55.3,9.9z M56.4,15c0.7,0,1-0.4,1-1c0-2.1-0.3-2.3-2.1-2.3
	c-1.9,0-2.6,0-2.6,3.3H56.4z"/>
<path d="M61.6,17.3c-0.8-0.6-1-2-1-3.2c0-2.8,1.2-4.1,3.2-4.1h5.7v1.4l-1.4,0.4c0.2,0.5,0.5,0.9,0.5,2.5c0,1.4-0.5,4.2-3,4.2h-2.6
	c-0.3,0-0.7,0.1-0.7,0.6s0.3,0.7,0.7,0.7h3.6c1.5,0,2.5,1.2,2.5,3.1v1.4c0,1.4-0.4,3.4-2.8,3.4h-2.7c-1.7,0-2.9-1.1-2.9-3.4v-1.8
	l0.7-1.3c-0.5-0.4-0.7-1.2-0.7-1.9C60.6,18.4,60.9,17.5,61.6,17.3z M63.6,25.7H66c1,0,1.3-0.7,1.3-1.6v-1.2c0-0.9-0.2-1.4-1.2-1.4
	H63c-0.5,0-0.8-0.2-0.8-0.2V24C62.2,25.5,63,25.7,63.6,25.7z M63.8,16.5h1.5c1.3,0,1.6-1.4,1.6-2.4c0-1.4-0.3-2.3-1.6-2.3h-1.4
	c-1.4,0-1.6,1.2-1.6,2.3C62.2,15.2,62.5,16.5,63.8,16.5z"/>
<path d="M70.6,6.8c0-0.4,0.1-0.6,0.4-0.6h1.2c0.3,0,0.4,0.3,0.4,0.6v1.4c0,0.3-0.2,0.5-0.4,0.5H71c-0.3,0-0.4-0.2-0.4-0.5V6.8z
	 M70.7,10h1.7v11.6h-1.7V10z"/>
<path d="M74.1,12.8c0-1.8,0.6-3,2.5-3c1.2,0,3.9,0.2,4.8,0.4v1.4h-4.6c-1,0-1,0.5-1,1.1v0.9c0,1.1,0.5,1.1,1,1.1h2.7
	c1.6,0,2.4,1.2,2.4,2.9v1.1c0,2.4-1.2,2.9-2.3,2.9c-1.1,0-4.4-0.3-5-0.5v-1.4h4.8c0.1,0,0.9,0.1,0.9-1v-0.9c0-0.7-0.2-1.1-0.9-1.1
	h-2.7c-1.7,0-2.5-0.7-2.5-2.9V12.8z"/>
<path d="M82.5,10.4l1.7-0.5l0.4-3.2h1.3V10h2.6v1.8h-2.6v5.5c0,1.9,0.4,2.3,1,2.5c0,0,1.4,0.5,1.5,0.5v1.4h-1.7
	c-1.4,0-2.4-1.1-2.4-4.1v-5.7h-1.7V10.4z"/>
<g class="st0">
	<path d="M1,7.5c0-5.6,3.2-7,7.5-7c2.5,0,8.1,0.7,9.8,1v2.9C15.8,4.2,9.2,4,8.9,4C6.3,3.8,4.5,4.1,4.5,7.6v2.3
		c0,3.2,1.4,3.5,3.6,3.5h5.1c5.1,0,6.1,3.8,6.1,6.9v2.4c0,5.8-3.9,6.7-7.6,6.7c-2.6,0-7.7-0.5-9.8-1v-2.9c1.5,0.2,6,0.4,9.5,0.4
		c1.6,0,4.5-0.1,4.5-3.2v-2.3c0-2.1-0.6-3.5-2.9-3.5h-5C1.6,17,1,13.1,1,10V7.5z"/>
</g>
</svg>
