<?xml version="1.0" encoding="utf-8"?>
<!-- Generator: Adobe Illustrator 26.0.0, SVG Export Plug-In . SVG Version: 6.00 Build 0)  -->
<svg version="1.1" id="레이어_1" xmlns="http://www.w3.org/2000/svg" xmlns:xlink="http://www.w3.org/1999/xlink" x="0px"
	 y="0px" viewBox="0 0 120 30" style="enable-background:new 0 0 120 30;" xml:space="preserve">
<g>
	<path d="M19.58,4.33H5.84v8.19h12.24c1.73,0,2.91,0.48,3.55,1.44s0.96,2.78,0.96,5.47v3.3c0,2.7-0.31,4.53-0.94,5.49
		c-0.62,0.96-1.81,1.44-3.57,1.44H6.74c-1.76,0-2.97-0.49-3.6-1.45c-0.64-0.98-0.96-2.8-0.96-5.48v-0.8l3.01-1.05v4.72h14.46v-8.82
		H7.45c-1.76,0-2.96-0.49-3.58-1.46s-0.94-2.8-0.94-5.48V7.27c0-2.68,0.31-4.51,0.94-5.48c0.62-0.98,1.82-1.45,3.58-1.45H17.8
		c1.73,0,2.92,0.48,3.57,1.43c0.66,0.95,0.98,2.63,0.98,5.01v0.61l-2.78,1.19V4.33H19.58z"/>
</g>
<path d="M29.01,8.67v16.24h-1.55V8.67h-3.9V5.83h9.36v2.84H29.01z"/>
<path d="M35.26,24.91V5.83h6.63c0.61,0,1.06,0.29,1.33,0.87c0.27,0.58,0.4,1.52,0.4,2.82v4.26c0,1.29-0.13,2.22-0.4,2.79
	c-0.27,0.57-0.71,0.86-1.33,0.86H40.8l3.64,7.47h-2.08l-3.29-7.47h-2.25v7.47H35.26z M41.21,8.62h-4.39v6.15h4.39
	c0.35,0,0.58-0.13,0.7-0.4c0.12-0.26,0.18-0.78,0.18-1.54v-2.29c0-0.7-0.06-1.2-0.19-1.49C41.77,8.77,41.54,8.62,41.21,8.62z"/>
<path d="M46.2,24.91l4.77-19.08h1.42l4.88,19.08h-1.69l-1.07-4.46h-5.7l-1.05,4.46H46.2z M49.46,17.7h4.38l-2.19-9.08L49.46,17.7z"
	/>
<path d="M62.64,8.67v16.24h-1.55V8.67H57.2V5.83h9.36v2.84H62.64z"/>
<path d="M68.89,24.91V5.83h8.3v2.84h-6.74v4.9h4.07v2.84h-4.07v5.71h6.82v2.79H68.89z"/>
<path d="M88.07,8.67h-6.52v13.36h6.52v-5.19h-3.36v-2.59h4.92v6.15c0,1.74-0.14,2.93-0.42,3.56c-0.28,0.63-0.82,0.95-1.6,0.95h-5.59
	c-0.79,0-1.32-0.31-1.6-0.93C80.14,23.35,80,22.16,80,20.4V10.36c0-1.74,0.14-2.93,0.43-3.57c0.29-0.64,0.82-0.96,1.6-0.96h5.59
	c0.77,0,1.29,0.31,1.59,0.94c0.29,0.63,0.44,1.74,0.44,3.32v0.55l-1.56,0.62V8.67z"/>
<path d="M94.59,24.91h-1.55V5.87h1.55V24.91z"/>
<path d="M105.64,8.67h-5.79v4.95h5.29c0.77,0,1.3,0.31,1.58,0.93c0.28,0.62,0.42,1.81,0.42,3.57v2.29c0,1.76-0.14,2.95-0.41,3.57
	c-0.28,0.62-0.81,0.93-1.59,0.93h-5.02c-0.79,0-1.32-0.31-1.6-0.93c-0.28-0.62-0.42-1.81-0.42-3.57v-0.53l1.42-0.68v2.84h6.22v-5.36
	h-5.31c-0.78,0-1.31-0.31-1.59-0.93c-0.28-0.62-0.42-1.81-0.42-3.57v-1.8c0-1.74,0.14-2.93,0.42-3.57c0.28-0.64,0.81-0.96,1.59-0.96
	h4.59c0.77,0,1.29,0.31,1.59,0.92c0.29,0.62,0.44,1.7,0.44,3.25v0.46l-1.42,0.7V8.67z"/>
<path d="M114.73,8.67v16.24h-1.55V8.67h-3.89V5.83h9.36v2.84H114.73z"/>
</svg>
