<?xml version="1.0" encoding="utf-8"?>
<!-- Generator: Adobe Illustrator 26.0.0, SVG Export Plug-In . SVG Version: 6.00 Build 0)  -->
<svg version="1.1" id="레이어_1" xmlns="http://www.w3.org/2000/svg" xmlns:xlink="http://www.w3.org/1999/xlink" x="0px"
	 y="0px" viewBox="0 0 15 15" style="enable-background:new 0 0 15 15;" xml:space="preserve">
<style type="text/css">
	.st0{fill:#FFFFFF;stroke:#9F1900;stroke-width:0.75;stroke-miterlimit:10;}
	.st1{fill:#9F1900;stroke:#9F1900;stroke-width:0.75;stroke-miterlimit:10;}
</style>
<path class="st0" d="M11.2,13.8H3.8c-1.4,0-2.5-1.1-2.5-2.5V3.8c0-1.4,1.1-2.5,2.5-2.5h7.5c1.4,0,2.5,1.1,2.5,2.5v7.5
	C13.8,12.6,12.6,13.8,11.2,13.8z"/>
<path class="st0" d="M4.8,4.9"/>
<path class="st0" d="M4.5,5.7"/>
<path class="st1" d="M7.5,11.8L7.5,11.8c-2.3,0-4.3-1.9-4.3-4.3v0c0-2.3,1.9-4.3,4.3-4.3h0c2.3,0,4.3,1.9,4.3,4.3v0
	C11.8,9.8,9.8,11.8,7.5,11.8z"/>
</svg>
